<svg xmlns="http://www.w3.org/2000/svg" viewBox="0 0 93.71 93.71"><defs><style>.cls-1{fill:#008061;}.cls-2{fill:#ffd046;}.cls-3{fill:#fff;}</style></defs><title>MSA-round-flagAsset 1</title><g id="Layer_2" data-name="Layer 2"><g id="Background"><circle class="cls-1" cx="46.86" cy="46.86" r="46.86"/><path class="cls-2" d="M46.86,70.74c.68,0,1.35,0,1.84-.06a.35.35,0,0,1,.38.36v.27a24,24,0,0,0,3.13-.49l-.08-.26a.34.34,0,0,1,.23-.46A27.93,27.93,0,0,0,55.88,69a.37.37,0,0,1,.48.23l.08.25A22.7,22.7,0,0,0,59.26,68l-.15-.22a.33.33,0,0,1,.08-.5,29.55,29.55,0,0,0,3-2.18.36.36,0,0,1,.52.07l.16.22a23.68,23.68,0,0,0,2.24-2.24L64.89,63a.34.34,0,0,1-.08-.51,29.6,29.6,0,0,0,2.17-3,.36.36,0,0,1,.52-.1l.22.16a26.71,26.71,0,0,0,1.44-2.82l-.26-.09a.34.34,0,0,1-.23-.46,29.3,29.3,0,0,0,1.14-3.52.37.37,0,0,1,.47-.25l.25.09a23.71,23.71,0,0,0,.5-3.13h-.27a.35.35,0,0,1-.37-.36,26.86,26.86,0,0,0,0-3.7.37.37,0,0,1,.37-.38H71a25.49,25.49,0,0,0-.5-3.13l-.25.08a.35.35,0,0,1-.46-.23,29.65,29.65,0,0,0-1.15-3.52.36.36,0,0,1,.23-.48l.26-.08a25.08,25.08,0,0,0-1.44-2.83l-.22.16a.35.35,0,0,1-.51-.08,27.06,27.06,0,0,0-2.17-3,.36.36,0,0,1,.07-.53l.21-.15a23.78,23.78,0,0,0-2.24-2.25l-.16.22a.33.33,0,0,1-.5.08,28.21,28.21,0,0,0-3-2.17.35.35,0,0,1-.09-.52l.15-.22a24.9,24.9,0,0,0-2.82-1.44l-.09.25a.33.33,0,0,1-.45.24,28.14,28.14,0,0,0-3.52-1.14.36.36,0,0,1-.25-.47l.08-.25a23.45,23.45,0,0,0-3.13-.5v.27a.34.34,0,0,1-.36.36,30.43,30.43,0,0,0-3.7,0,.36.36,0,0,1-.39-.36V23a24,24,0,0,0-3.13.49l.08.26a.34.34,0,0,1-.23.46,28.47,28.47,0,0,0-3.52,1.14.35.35,0,0,1-.47-.23l-.09-.25a25.81,25.81,0,0,0-2.82,1.44l.15.22a.35.35,0,0,1-.07.51,27.21,27.21,0,0,0-3,2.17.35.35,0,0,1-.52-.07l-.16-.22a24.92,24.92,0,0,0-2.24,2.24l.21.16a.35.35,0,0,1,.09.51,28.74,28.74,0,0,0-2.18,3,.37.37,0,0,1-.52.09L26,34.73a24.32,24.32,0,0,0-1.45,2.83l.26.08a.34.34,0,0,1,.23.46,29.89,29.89,0,0,0-1.14,3.52.36.36,0,0,1-.46.25l-.26-.08a26.86,26.86,0,0,0-.5,3.13H23a.35.35,0,0,1,.37.36,26.86,26.86,0,0,0,0,3.7.37.37,0,0,1-.37.38h-.26a24.1,24.1,0,0,0,.49,3.14l.26-.09a.35.35,0,0,1,.46.24A27.77,27.77,0,0,0,25,56.16a.36.36,0,0,1-.23.48l-.25.08A23.45,23.45,0,0,0,26,59.55l.22-.16a.35.35,0,0,1,.51.08,29.71,29.71,0,0,0,2.18,3,.36.36,0,0,1-.08.52l-.21.15a23.78,23.78,0,0,0,2.24,2.25l.16-.22a.34.34,0,0,1,.51-.08,28.65,28.65,0,0,0,3,2.18.34.34,0,0,1,.09.51l-.15.22a24.12,24.12,0,0,0,2.82,1.44l.09-.25a.34.34,0,0,1,.45-.24,28.24,28.24,0,0,0,3.52,1.15.34.34,0,0,1,.25.46l-.08.25a23.45,23.45,0,0,0,3.13.5V71a.34.34,0,0,1,.37-.36c.53,0,1.2.06,1.86.06v2c-.61,0-1.24,0-1.84-.07-.21,0-.39-.38-.39-.59a23.91,23.91,0,0,1-3.34-.64l-.1.31a.38.38,0,0,1-.48.24,25.31,25.31,0,0,1-3.5-1.14.39.39,0,0,1-.24-.48l.09-.29a25.45,25.45,0,0,1-3-1.55l-.18.26a.4.4,0,0,1-.54.09,24.2,24.2,0,0,1-3-2.17.4.4,0,0,1-.09-.53l.18-.25a26.92,26.92,0,0,1-2.39-2.4l-.25.19a.41.41,0,0,1-.54-.09,26.24,26.24,0,0,1-2.16-3,.4.4,0,0,1,.09-.54l.25-.18a25.28,25.28,0,0,1-1.53-3l-.31.1a.39.39,0,0,1-.48-.25A24,24,0,0,1,22,53.28a.39.39,0,0,1,.24-.48l.3-.1A25.2,25.2,0,0,1,22,49.36H21.7a.39.39,0,0,1-.38-.38,23.76,23.76,0,0,1,0-3.68.39.39,0,0,1,.38-.38H22a26.32,26.32,0,0,1,.53-3.34l-.3-.1A.39.39,0,0,1,22,41a23.54,23.54,0,0,1,1.13-3.5.41.41,0,0,1,.48-.25l.3.1a26.22,26.22,0,0,1,1.54-3l-.25-.19a.39.39,0,0,1-.09-.53,25.23,25.23,0,0,1,2.16-3,.4.4,0,0,1,.54-.08l.25.18a24.49,24.49,0,0,1,2.4-2.39l-.19-.26a.39.39,0,0,1,.08-.53,24.13,24.13,0,0,1,3-2.16.39.39,0,0,1,.53.08l.19.25a25.28,25.28,0,0,1,3-1.53l-.1-.3a.39.39,0,0,1,.24-.48,24.37,24.37,0,0,1,3.5-1.14.39.39,0,0,1,.48.25l.1.29a25.59,25.59,0,0,1,3.34-.52V22A.4.4,0,0,1,45,21.6a23.75,23.75,0,0,1,3.68,0,.39.39,0,0,1,.38.38v.31a26.23,26.23,0,0,1,3.34.54l.1-.3a.39.39,0,0,1,.48-.25,24.88,24.88,0,0,1,3.5,1.14.39.39,0,0,1,.24.48l-.09.3a25.47,25.47,0,0,1,3,1.54l.19-.26a.39.39,0,0,1,.53-.08,24.14,24.14,0,0,1,3,2.16.39.39,0,0,1,.08.53l-.18.26a25.62,25.62,0,0,1,2.39,2.39l.25-.18a.4.4,0,0,1,.54.08,25.52,25.52,0,0,1,2.16,3,.39.39,0,0,1-.08.53l-.26.18a25.45,25.45,0,0,1,1.54,3l.3-.1a.39.39,0,0,1,.48.25A25.24,25.24,0,0,1,71.72,41a.41.41,0,0,1-.25.48l-.3.1a25.46,25.46,0,0,1,.53,3.34H72a.39.39,0,0,1,.38.38,25.08,25.08,0,0,1,0,3.68.39.39,0,0,1-.38.38H71.7a24.64,24.64,0,0,1-.53,3.34l.3.1a.4.4,0,0,1,.25.48,24.47,24.47,0,0,1-1.14,3.5.39.39,0,0,1-.48.25l-.3-.1a25.65,25.65,0,0,1-1.54,3l.26.18a.39.39,0,0,1,.08.53,24.14,24.14,0,0,1-2.16,3,.41.41,0,0,1-.54.09l-.25-.19a24.45,24.45,0,0,1-2.39,2.39l.18.26a.38.38,0,0,1-.08.53,24.43,24.43,0,0,1-3,2.17.4.4,0,0,1-.53-.09l-.19-.25a25.2,25.2,0,0,1-3,1.53l.09.3a.39.39,0,0,1-.24.48A24.37,24.37,0,0,1,53,72a.38.38,0,0,1-.48-.24l-.1-.3a25.59,25.59,0,0,1-3.34.52v.32a.39.39,0,0,1-.38.38c-.56,0-1.19.07-1.84.07v-2Z"/><path class="cls-1" d="M48.22,23.15c.16,0,.28-.09.28-.2v-.68c0-.11-.12-.2-.28-.2H45.49c-.15,0-.28.09-.28.2V23c0,.11.13.2.28.2Z"/><path class="cls-1" d="M40.74,23.9c.15,0,.24-.17.2-.28l-.2-.64c0-.11-.19-.15-.34-.1l-2.59.84c-.15.05-.24.17-.2.28l.2.64c0,.11.19.15.34.11l2.59-.85Z"/><path class="cls-1" d="M33.86,26.93A.27.27,0,0,0,34,26.6l-.4-.54c-.07-.1-.22-.1-.35,0L31,27.66c-.13.09-.18.24-.11.33l.39.55a.25.25,0,0,0,.35,0l2.21-1.6Z"/><path class="cls-1" d="M28.25,31.94a.26.26,0,0,0,0-.35l-.54-.4a.28.28,0,0,0-.34.11l-1.6,2.21a.26.26,0,0,0,0,.35l.54.39c.1.07.24,0,.34-.11l1.6-2.2Z"/><path class="cls-1" d="M24.46,38.43c.05-.15,0-.3-.11-.33l-.64-.21c-.1,0-.23.06-.28.21l-.84,2.59c-.05.15,0,.3.11.33l.64.21c.1,0,.23-.06.28-.21l.84-2.59Z"/><path class="cls-1" d="M22.87,45.78a.25.25,0,0,0-.21-.28H22a.25.25,0,0,0-.21.28V48.5c0,.16.1.29.21.29h.67c.11,0,.21-.13.21-.29V45.78Z"/><path class="cls-1" d="M23.62,53.26c-.05-.15-.17-.24-.28-.21l-.64.21a.25.25,0,0,0-.11.33l.84,2.6c.05.14.18.24.29.2l.64-.21c.1,0,.15-.18.1-.33l-.84-2.59Z"/><path class="cls-1" d="M26.65,60.14c-.09-.13-.24-.18-.33-.11l-.55.4c-.09.06-.09.22,0,.35L27.38,63c.09.13.24.18.33.11l.54-.4c.09-.06.09-.22,0-.34l-1.6-2.21Z"/><path class="cls-1" d="M31.65,65.75a.26.26,0,0,0-.35,0l-.39.54c-.07.09,0,.24.11.33l2.2,1.61c.13.09.29.09.35,0l.4-.55a.25.25,0,0,0-.11-.33l-2.21-1.6Z"/><path class="cls-1" d="M38.15,69.54c-.15-.05-.3,0-.33.1l-.21.64c0,.11,0,.24.2.28l2.6.85c.15,0,.29,0,.33-.11l.21-.64c0-.11-.06-.23-.21-.28l-2.59-.84Z"/><path class="cls-1" d="M45.49,71.13c-.15,0-.28.09-.28.2V72c0,.11.13.2.28.2h2.73c.16,0,.28-.09.28-.2v-.68c0-.11-.12-.2-.28-.2Z"/><path class="cls-1" d="M53,70.38c-.14.05-.24.17-.2.28l.21.64c0,.11.18.15.33.11l2.59-.85c.15,0,.24-.17.21-.28l-.21-.64c0-.11-.18-.15-.33-.11l-2.6.85Z"/><path class="cls-1" d="M59.85,67.35a.25.25,0,0,0-.1.33l.39.54c.07.1.22.1.35,0l2.21-1.6a.25.25,0,0,0,.1-.33l-.39-.54c-.07-.1-.22-.1-.35,0l-2.21,1.6Z"/><path class="cls-1" d="M65.46,62.34c-.09.13-.09.29,0,.35l.55.4a.27.27,0,0,0,.33-.11l1.6-2.21a.26.26,0,0,0,0-.35L67.4,60c-.09-.07-.24,0-.33.11l-1.61,2.2Z"/><path class="cls-1" d="M69.25,55.85c0,.15,0,.3.11.33l.64.21c.1,0,.23-.06.28-.21l.84-2.59c0-.15,0-.3-.11-.33l-.64-.21c-.1,0-.23.06-.28.21l-.84,2.59Z"/><path class="cls-1" d="M70.84,48.5a.25.25,0,0,0,.21.28h.67c.12,0,.21-.12.21-.28V45.78c0-.16-.1-.29-.21-.29h-.67c-.11,0-.21.13-.21.29V48.5Z"/><path class="cls-1" d="M70.09,41c0,.15.18.24.28.21L71,41c.11,0,.16-.18.11-.33l-.84-2.59c0-.15-.18-.25-.28-.21l-.64.21c-.11,0-.16.18-.11.33L70.09,41Z"/><path class="cls-1" d="M67.06,34.14c.09.13.24.18.33.11l.55-.39a.26.26,0,0,0,0-.35l-1.6-2.21a.27.27,0,0,0-.34-.11l-.54.4c-.09.06-.09.22,0,.35l1.6,2.2Z"/><path class="cls-1" d="M62.06,28.53a.24.24,0,0,0,.35,0L62.8,28c.07-.09,0-.24-.11-.33l-2.2-1.6c-.13-.1-.29-.1-.35,0l-.4.54a.25.25,0,0,0,.11.33l2.21,1.6Z"/><path class="cls-1" d="M55.56,24.75c.15.05.3,0,.33-.11L56.1,24c0-.11-.05-.23-.2-.28l-2.6-.84A.26.26,0,0,0,53,23l-.21.64a.27.27,0,0,0,.21.29l2.59.84Z"/><path class="cls-3" d="M46.79,26.81c-1.15.55-1.28.45-1.06.87s.48.19,1.43-.23c.73-.32,1.19-.42,1-.89s-.33-.24-1.36.25Z"/><path class="cls-3" d="M42,27.58c-.58.6-.44.54,0,1s.5.51.92.07.62-.46.12-1.05S42.56,27,42,27.58Z"/><path class="cls-3" d="M40.18,27.35c-.55.55-.42.49,0,.94s.48.46.88.06.59-.42.11-1-.53-.54-1,0Z"/><path class="cls-3" d="M47.5,29a4.44,4.44,0,0,0-2.88-.35c-.73.17-1.21.91-.34,1.51a20,20,0,0,1,2.36,2,2.46,2.46,0,0,0,2.85.1,1,1,0,0,0-.06-1.81,1,1,0,0,0-1.44.4c-.21.51.43.89.49.5.08-.57,1-.66.45.09a1.23,1.23,0,0,1-1.7.27c-.79-.57-1-.64-1.59-1.09s-1.85-1.33.14-1.38.89,1-.52,1.56-2.26-.1-3.42-.71-1.48.21-1.73.85-1.23.42-1.62.23-1.08-.17-.4.78,2.32.2,2.56-.31c.35-.77.72-1.08,2.2-.2A2.9,2.9,0,0,0,46,31.17a6.16,6.16,0,0,1,1.66-1.23.52.52,0,0,0-.16-1Z"/><path class="cls-3" d="M50.83,27.57c-.15-.47-1.18.1-1.1.47a17.35,17.35,0,0,0,1.47,4.49c.54.91,1.45,1,2.89.3s2.83-1.48,1.62-2.28-3.57-.61-4.11.94-1,3.36-.5,3.57.94-1,1-2,0-1.87,1.53-2,1.74.34,1,.81-2.5,1.18-2.73.07-.81-3.3-1.11-4.29Z"/><path class="cls-3" d="M54.28,33.44c-.51.47-.52.66,0,1s.59.21.91-.1.42-.54,0-.87-.53-.42-.92-.07Z"/><path class="cls-3" d="M56.7,35.48c-.66,1-1.76.55-2.1,1s-.37,2,.15,1.38c.91-1.16,1.94-.92,2.15-1.34s.26-1.74-.2-1.06Z"/><path class="cls-3" d="M39.79,34.55c.42.37,1.3,1.12,1.71.32.22-.42.44-.54.83-.18s1.13.52,1.13-.26c0-.47.25-.65.59-.1s-.19,2.7-2,1.13c-1.35,1.36-2.24.52-2.41.1a7.21,7.21,0,0,0,.14-1Z"/><path class="cls-3" d="M33.68,33.71c-.57.61-.34.64,0,1s.49.65,1,.22.6-.66.13-1.17-.74-.52-1.14-.08Z"/><path class="cls-3" d="M36.17,34c-.64.56-.62.62,0,1.25s.61.52,1.13,0,.59-.56,0-1.15-.61-.59-1.11-.15Z"/><path class="cls-3" d="M31.27,38c0,1.41,1.48,2.42,2.19.74s2.14-3,3.3-1.49c.91,1.18,2.45,2.1,3.4,1.15.67-.67,1.18-.57,2,0s2.11.55,2-.74c0-.49.17-.82.55-.1a1.65,1.65,0,0,1-1.39,2.29,1.73,1.73,0,0,1-1.6-.49c-.46-.57-.7-.51-1.23-.05a2.73,2.73,0,0,1-3.38-.4c-1.2-1.55-1.85-1.72-2.49-.51s-1.68,2.93-3.15,1.45a1.93,1.93,0,0,1-.56-1.77c0-.27.39-.43.39-.11Z"/><path class="cls-3" d="M35.56,39.08c-1.2.49-1.52,1.92-.47,2.54.66.39.94-.57.47-.81s-.32-.81.2-1.23.26-.69-.2-.5Z"/><path class="cls-3" d="M45.53,49.27c-1.12-1.14-3.51-1.47-5.07-1.39a3.54,3.54,0,0,1-3.64-2.76c-.13-.51-.67-1.06-.5.07.27,1.82,1.68,3.06,4.14,3.26,3.69.31,6.13,1.53,4.71,5.39-.87,2.39-5.32,3.73-7.6,1.18-2.56-2.86-1.42-6.42,2.25-10a7.15,7.15,0,0,1,2.49-1.71c.64-.2,1.78-1.34.44-1.65a9.81,9.81,0,0,0-6.06.72.59.59,0,0,0,.45,1,1.88,1.88,0,0,1,1.91.86,6.73,6.73,0,0,0,2.38,1.85c-2.56,1.14-2.42,4.68-.13,6.53s6.69,1.63,9.19-.94c4.65-4.78,0-8.14,2.29-13,.24-.51.44-.91.07-1.22a4.47,4.47,0,0,1-.91-1.78c-.17-.57-.36-.47-.47.37-1,7.27,2.19,11.18-1,14.41-3.5,3.5-6.29,2.71-8.55,1.07-.74-.53-2.89-3.47.34-5.15a5.23,5.23,0,0,0,1.92.21c2.49-.21,3.79-2.51,3-5.83-.17-.7-.7-2.08.16-2.22.41-.07.21-.34,0-.74A5.45,5.45,0,0,1,46.65,36c0-.54-.26-.34-.43.3a8.72,8.72,0,0,0,0,4.45c.34,1.58.58,3.77-1.07,4.78-3,1.81-5.42-2-6.27-2.26-.64-.18-1.14-.74.07-.94a22.41,22.41,0,0,1,2.69-.17c.48,0,1.08.3.21.61-2,.67-3.5,2.45-4.61,3.87s-3.37,3.29-5,2-.87-3-.07-4.07c.34-.44.37-.71-.23-.91s-1.33-1,.1-2.43c.23-.23-.1-.57-.37-.33-1.26,1.1-1.75,2.32-.17,3.4-1.25,1.65-1.21,4-.1,5A3.57,3.57,0,0,0,35.85,49c-1.11,2.9-.51,8,4.64,8.25s6.45-4.47,5.56-7.14c2.69-1.68,6-2.29,8-3.77s3.82-3.09,3.1-6.19a1.83,1.83,0,0,0-3.55-.49,1.88,1.88,0,0,0,1.63,2.41c.81.17.59-.42,0-.73s-1.11-1.36-.61-1.9,1.68-.64,1.95,1.52S55,44.72,54,45.59c-2.05,1.69-6.39,2.52-8.43,3.68Z"/><path class="cls-3" d="M33.56,43.44c-.49.32-.79.35-.29,1s.56.42,1,.15.69-.28.27-1-.59-.47-.94-.23Z"/><path class="cls-3" d="M32.9,45.53c-.57.43-.52.62-.15,1.11s.49.55,1,.08.47-.59.11-1-.43-.6-1-.16Z"/><path class="cls-3" d="M38.41,51.48c-.46.36-.41.54-.1,1s.47.5.87.1.57-.5.14-1-.61-.3-.91-.07Z"/><path class="cls-3" d="M55.41,40.59c.15.11.27.17.36.1a.39.39,0,0,0,0-.42.29.29,0,0,0-.42-.09.27.27,0,0,0,0,.41Z"/><path class="cls-3" d="M55.2,51.79c-.8,1.88-3.7,4.84-6,3.63-2.46-1.3-.87-4.51-.13-6.93s.17-7.41-.27-8.82a8.69,8.69,0,0,1-.2-4c.2-1.11.5-.57.57.1a5.93,5.93,0,0,0,.64,2.52c.37.31.84.58.37,1S49.68,41,50,43s.41,4.72-.47,6.6-1.14,4.18.34,4.85,2.89-.34,4.64-3.5c-1.14-2.29-1.54-5.76-.94-7.44.25-.69,1-.77.78.34s-.17,5.35,1.31,7S58.75,52.31,59,50a39.49,39.49,0,0,0-.74-12.22,1,1,0,0,1,.24-1.21c.4-.37.77-1,.8,0a3.44,3.44,0,0,0,1,2.89c6.91,8.32-1,21.58-15.51,18.68-1.54-.3-.54-.66.74-.47,6.33,1,11.16-1.37,14.07-4.84,2.61-3.13,3.57-9.56.13-12,.34,5.52.74,10.16-.94,11.57s-2.9.27-3.64-.53Z"/><path class="cls-3" d="M56.85,46.23c-.7,1-.66,2.56.56,3,.79.25.76-.57.29-.86a1,1,0,0,1-.26-1.43c.19-.34-.2-1.23-.59-.66Z"/><path class="cls-3" d="M46.86,68.09A20.95,20.95,0,0,0,60.52,31.27a18.28,18.28,0,0,1,4.3,11.81,18,18,0,1,1-35.92,0,18.33,18.33,0,0,1,4.29-11.81A20.95,20.95,0,0,0,46.86,68.09Z"/><path class="cls-3" d="M45.35,14.69c-.7-3.9-6.41-4.15-7.33-4.75s-.9,0-.48,1.05c1,2.69,4.58,3.83,6.19,4.11,1.33.22,1.75.32,1.62-.41Z"/><path class="cls-3" d="M47.07,14.79c.55-4-5.08-5.86-5.77-6.74s-.88-.38-.56.72a12.14,12.14,0,0,0,4.65,5.9c1.2.63,1.58.86,1.68.12Z"/><path class="cls-3" d="M51.75,17.11c.49-4.78-4.09-5.52-5.3-7-.78-1-.85-.44-.59.68a12,12,0,0,0,4.23,6.11c1.15.7,1.58,1,1.66.22Z"/><path class="cls-3" d="M50.31,16.08c-4.77-3.13-8.11-1.39-9.48-1.54s-1.77.71.53,2a11.5,11.5,0,0,0,8.2.7c1.54-.6,1.09-.91.75-1.13Z"/><path class="cls-3" d="M57.49,18.19c-1.44-5.19-4.84-4.35-5.85-5s-1.11-.45-.88.71c.4,2.05,3.9,4.3,5.66,5,.6.23,1.41.5,1.07-.71Z"/><path class="cls-3" d="M56.85,19.05c-4.13-3.31-7.32-.81-8.6-1.2-.9-.28-.49.38-.13.63,2.64,1.84,5.89,2.82,8.41,1.7,1-.43,1-.56.32-1.13Z"/><path class="cls-3" d="M65.71,22.43c.06-3.26-6.7-4.61-8.08-6.63-.84-1.22-1.6-.55-1.15,1.35.61,2.52,5.25,5.32,7.75,5.86,1.52.32,1.47-.21,1.48-.58Z"/><path class="cls-3" d="M65.5,23c-4.26-3.79-7.82-2.55-9.15-2.89s-1.85.43.23,2a11.53,11.53,0,0,0,8,1.88c1.61-.37,1.21-.74.9-1Z"/><path class="cls-3" d="M73.13,28.61c-1.26-5.58-5.07-6.69-6-7.76s-1.85-.74-1.07,1.77a11.75,11.75,0,0,0,5.65,6.27c1.61.65,1.5.12,1.41-.28Z"/><path class="cls-3" d="M73.05,29.36c-3.08-5-7.15-4.82-8.4-5.55s-2-.1-.44,2.07a12,12,0,0,0,7.57,4.21c1.78.11,1.49-.38,1.27-.73Z"/><path class="cls-3" d="M77.05,35.29c1.75-5.67-2.32-7.78-2.76-8.72s-.92-.94-1.21.07c-1.15,4,2.59,8,3.16,8.72s.68.37.81-.07Z"/><path class="cls-3" d="M76.18,36.87c-1.37-6.39-5.12-6-6-6.9s-1-.26-.84.88c.4,3.1,4.12,5.24,5.82,6.26.5.3,1.18.71,1-.24Z"/><path class="cls-3" d="M79.78,44.31c2.54-6-.47-10-1.42-10.9s-1.54-1.25-1.24,0c.44,1.81-1,6.56,1.21,10,.74,1.15.88,2.26,1.45.91Z"/><path class="cls-3" d="M78.4,45.49a8.4,8.4,0,0,0-3.77-8.31c-1.33-.77-1.37-.61-1.35.54.07,3.36,3.27,6.22,4.21,7.77s.84.38.91,0Z"/><path class="cls-3" d="M77.8,55.06c-1.85-7,2.09-10.91,3.26-11.72s1.88-1.12,1.36.2c-.76,1.92.08,7.34-2.89,10.75-1,1.14-1.31,2.33-1.73.77Z"/><path class="cls-3" d="M78.27,53.56c1.56-6-1.88-9.45-2.9-10.15s-1.65-1-1.19.18c.68,1.66,0,6.38,2.58,9.32.87,1,1.16,2,1.51.65Z"/><path class="cls-3" d="M76.33,50.73a9.4,9.4,0,0,0-1.64,10.09c.76,1.54.9,1.42,1.59.34,2-3.19.82-7.84.9-9.87s-.56-.88-.85-.56Z"/><path class="cls-3" d="M81,55.56c0,4.16-2.55,7.59-5.28,8.63-1.61.61-1.6.43-1.39-.84.76-4.7,4.34-6.42,5.67-8s1-.26,1,.17Z"/><path class="cls-3" d="M71.23,68c4.58-4.17,2.15-7.13,2.35-9.86.11-1.47-.49-1.08-1-.57-3,2.89-3.07,8-2.45,10,.27.87.68.79,1.11.4Z"/><path class="cls-3" d="M77.38,65.29c-1.5,4.61-5.56,7.48-9,7.65-2,.1-1.92-.1-1.23-1.43,2.54-4.92,7.12-5.54,9.14-6.77s1.21.07,1,.55Z"/><path class="cls-3" d="M64.86,74c6-3,4.77-8,5.9-9.26.79-.88-.19-.76-.66-.48-3.51,2.08-6.34,5.3-6.37,8.78,0,1.33.1,1.49,1.13,1Z"/><path class="cls-3" d="M56.65,79.55C64.23,80.74,67.73,75,70,74.48c1.15-.28.29-.71-.26-.78-5.06-.57-11.45,1.77-13.4,4.41-.79,1.07-.78,1.26.36,1.44Z"/><path class="cls-3" d="M64.34,70.56c-1.51,5-7.18,9.06-11.46,9.4-2,.16-2-.09-1.27-1.4,3.46-6.15,9.35-7.2,11.45-8.78,1.81-1.37,1.42.3,1.28.78Z"/><path class="cls-3" d="M48.36,14.69c.7-3.9,6.41-4.15,7.33-4.75s.9,0,.49,1.05c-1,2.69-4.58,3.83-6.2,4.11-1.33.22-1.75.32-1.62-.41Z"/><path class="cls-3" d="M46.64,14.79c-.55-4,5.08-5.86,5.77-6.74s.89-.38.56.72a12.14,12.14,0,0,1-4.65,5.9c-1.2.63-1.58.86-1.68.12Z"/><path class="cls-3" d="M42,17.11c-.49-4.78,4.09-5.52,5.3-7,.78-1,.85-.44.59.68a12,12,0,0,1-4.23,6.11c-1.15.7-1.58,1-1.66.22Z"/><path class="cls-3" d="M43.4,16.08c4.77-3.13,8.12-1.39,9.48-1.54s1.77.71-.53,2a11.5,11.5,0,0,1-8.2.7c-1.54-.6-1.09-.91-.75-1.13Z"/><path class="cls-3" d="M36.22,18.19c1.44-5.19,4.84-4.35,5.86-5s1.1-.45.87.71c-.4,2.05-3.9,4.3-5.65,5-.61.23-1.42.5-1.08-.71Z"/><path class="cls-3" d="M36.86,19.05c4.14-3.31,7.32-.81,8.6-1.2.9-.28.5.38.13.63-2.64,1.84-5.89,2.82-8.41,1.7-1-.43-1-.56-.32-1.13Z"/><path class="cls-3" d="M28,22.43c-.07-3.26,6.69-4.61,8.07-6.63.84-1.22,1.6-.55,1.15,1.35C36.62,19.67,32,22.47,29.49,23,28,23.33,28,22.8,28,22.43Z"/><path class="cls-3" d="M28.21,23c4.26-3.79,7.82-2.55,9.15-2.89s1.85.43-.23,2a11.51,11.51,0,0,1-8,1.88c-1.62-.37-1.22-.74-.91-1Z"/><path class="cls-3" d="M20.59,28.61c1.25-5.58,5.06-6.69,6-7.76s1.85-.74,1.07,1.77A11.75,11.75,0,0,1,22,28.89c-1.61.65-1.49.12-1.4-.28Z"/><path class="cls-3" d="M20.66,29.36c3.08-5,7.15-4.82,8.4-5.55s2-.1.44,2.07a12,12,0,0,1-7.56,4.21c-1.79.11-1.5-.38-1.28-.73Z"/><path class="cls-3" d="M16.66,35.29c-1.74-5.67,2.33-7.78,2.76-8.72s.92-.94,1.21.07c1.15,4-2.59,8-3.16,8.72s-.67.37-.81-.07Z"/><path class="cls-3" d="M17.54,36.87c1.37-6.39,5.11-6,5.95-6.9s1-.26.85.88c-.41,3.1-4.12,5.24-5.83,6.26-.5.3-1.18.71-1-.24Z"/><path class="cls-3" d="M13.93,44.31c-2.54-6,.48-10,1.42-10.9s1.54-1.25,1.24,0c-.43,1.81,1,6.56-1.21,10-.74,1.15-.87,2.26-1.45.91Z"/><path class="cls-3" d="M15.31,45.49a8.4,8.4,0,0,1,3.77-8.31c1.33-.77,1.37-.61,1.35.54-.07,3.36-3.26,6.22-4.21,7.77s-.84.38-.91,0Z"/><path class="cls-3" d="M15.91,55.06c1.85-7-2.08-10.91-3.25-11.72s-1.89-1.12-1.37.2c.77,1.92-.08,7.34,2.89,10.75,1,1.14,1.31,2.33,1.73.77Z"/><path class="cls-3" d="M15.45,53.56c-1.56-6,1.88-9.45,2.9-10.15s1.64-1,1.18.18c-.68,1.66,0,6.38-2.58,9.32-.87,1-1.15,2-1.5.65Z"/><path class="cls-3" d="M17.38,50.73A9.4,9.4,0,0,1,19,60.82c-.76,1.54-.9,1.42-1.59.34-2-3.19-.81-7.84-.89-9.87s.55-.88.84-.56Z"/><path class="cls-3" d="M12.74,55.56c0,4.16,2.55,7.59,5.29,8.63,1.6.61,1.59.43,1.39-.84-.77-4.7-4.35-6.42-5.68-8s-1-.26-1,.17Z"/><path class="cls-3" d="M22.48,68c-4.57-4.17-2.15-7.13-2.35-9.86-.11-1.47.49-1.08,1-.57,3,2.89,3.07,8,2.46,10-.27.87-.69.79-1.12.4Z"/><path class="cls-3" d="M16.33,65.29c1.5,4.61,5.56,7.48,9,7.65,2,.1,1.92-.1,1.23-1.43C24,66.59,19.4,66,17.38,64.74s-1.21.07-1.05.55Z"/><path class="cls-3" d="M28.85,74c-6-3-4.77-8-5.89-9.26-.79-.88.18-.76.66-.48C27.12,66.32,30,69.54,30,73c0,1.33-.1,1.49-1.13,1Z"/><path class="cls-3" d="M37.06,79.55C29.49,80.74,26,75,23.77,74.48c-1.16-.28-.3-.71.25-.78,5.06-.57,11.46,1.77,13.4,4.41.79,1.07.79,1.26-.36,1.44Z"/><path class="cls-3" d="M29.38,70.56c1.5,5,7.17,9.06,11.45,9.4,2,.16,2-.09,1.28-1.4-3.46-6.15-9.36-7.2-11.46-8.78-1.81-1.37-1.42.3-1.27.78Z"/><path class="cls-1" d="M55.74,19.54c-1-.74-4.71-.34-5.35-.81,1.31,1.11,4.21.3,5.35.81Z"/><path class="cls-1" d="M64.6,21.42c-.81-1.41-5.46-2.35-6.16-3.63,1.24,2.42,4.84,2.08,6.16,3.63Z"/><path class="cls-1" d="M63.89,23.07c-1.68-1.71-5.76-1-7-2,2.86,2.56,4.41.58,7,2Z"/><path class="cls-1" d="M53.76,15.58c1.11.59,2.51,1.16,3.16,2.51-.75-1-2.2-1.44-3.37-2.32a.66.66,0,0,0,.21-.19Z"/><path class="cls-1" d="M71,26.41c-.67-1.55-3.06-3.3-3.3-3.91.71,2.05,2.66,2.56,3.3,3.91Z"/><path class="cls-1" d="M71.63,29.2c-2.12-3.33-5.38-2.93-6.73-4.21,1,1.21,4.81,2,6.73,4.21Z"/><path class="cls-1" d="M76.51,34.28c.17-3.5-2.45-4.85-2.56-6.8-.06,2.33,2.66,5.56,2.56,6.8Z"/><path class="cls-1" d="M75.2,36.17c-.54-3.07-4.11-3.23-4.71-5.05,0,1.68,4.17,3.4,4.71,5.05Z"/><path class="cls-1" d="M78.16,34.42c1.89,2.35.54,5.85,1.35,8.41-.94-1.88-.47-6.6-1.35-8.41Z"/><path class="cls-1" d="M75.06,44.31c2.83,3,1.69,6.47,2.83,7.95-1.41-2.09-1.21-6.06-2.83-7.95Z"/><path class="cls-1" d="M80.92,44.72c-2.42,2.69-.94,6.73-2.22,8.61,1.41-1.61,1.21-6.59,2.22-8.61Z"/><path class="cls-1" d="M77.89,44.72c-.33-3.1-3.23-4.72-3.5-6.4-.27,1.68,2.83,4.31,3.5,6.4Z"/><path class="cls-1" d="M76.41,52.12c.47,2.16-1.28,6.8-.74,8.22-1.14-2.49,1-7.14.74-8.22Z"/><path class="cls-1" d="M80.11,57C79,60.88,76.68,60.61,75.94,63c.54-2.22,3.57-4.24,4.17-5.92Z"/><path class="cls-1" d="M72.64,58.86c-1.55,2.55-.27,5.52-1.55,7.33,1.82-1.81.88-5.25,1.55-7.33Z"/><path class="cls-1" d="M76.28,65.86c-1.82,3.43-5.59,3.09-7.14,5.59,1.55-3.1,6.19-3.64,7.14-5.59Z"/><path class="cls-1" d="M69.61,65.45c-3.23,2.29-2.22,4.65-4.71,7.14,3.1-2.49,2.83-5.32,4.71-7.14Z"/><path class="cls-1" d="M68.13,74.61c-3.16-.14-7.67,4-10.43,3.63,2.76.61,7.8-3.09,10.43-3.63Z"/><path class="cls-1" d="M63,70.91c-.2,3.23-8.41,5.25-9.29,7.4,1-2.83,8.22-4.91,9.29-7.4Z"/><path class="cls-1" d="M44.52,11.86c-1.07-.89-2.32-1.64-2.68-2.49a5.62,5.62,0,0,0,2.32,2.78c.14-.07.24-.23.36-.29Z"/><path class="cls-1" d="M42.72,12.83C41.1,12,39.18,12.06,38.37,11c.52,1.08,2.28,1.52,3.82,2.07a4.73,4.73,0,0,1,.53-.23Z"/><path class="cls-1" d="M38,19.54c1-.74,4.71-.34,5.35-.81-1.31,1.11-4.21.3-5.35.81Z"/><path class="cls-1" d="M29.12,21.42c.8-1.41,5.45-2.35,6.16-3.63-1.25,2.42-4.85,2.08-6.16,3.63Z"/><path class="cls-1" d="M29.82,23.07c1.69-1.71,5.76-1,7-2-2.86,2.56-4.41.58-7,2Z"/><path class="cls-1" d="M36.79,18.09c1-2.09,3.8-2.32,4.55-3.6-1.12,1.92-3.51,2.19-4.55,3.6Z"/><path class="cls-1" d="M44.84,16.27c2.89-1.34,5.75-.2,7.13-.84-1.68.88-5.69.47-7.13.84Z"/><path class="cls-1" d="M22.72,26.41c.67-1.55,3.06-3.3,3.3-3.91-.71,2.05-2.66,2.56-3.3,3.91Z"/><path class="cls-1" d="M22.08,29.2c2.12-3.33,5.39-2.93,6.73-4.21-1,1.21-4.81,2-6.73,4.21Z"/><path class="cls-1" d="M17.2,34.28c-.17-3.5,2.46-4.85,2.56-6.8.07,2.33-2.66,5.56-2.56,6.8Z"/><path class="cls-1" d="M18.51,36.17c.54-3.07,4.11-3.23,4.72-5.05,0,1.68-4.18,3.4-4.72,5.05Z"/><path class="cls-1" d="M15.55,34.42c-1.88,2.35-.54,5.85-1.35,8.41,1-1.88.48-6.6,1.35-8.41Z"/><path class="cls-1" d="M18.65,44.31c-2.83,3-1.69,6.47-2.83,7.95,1.41-2.09,1.21-6.06,2.83-7.95Z"/><path class="cls-1" d="M12.79,44.72c2.42,2.69.94,6.73,2.22,8.61-1.41-1.61-1.21-6.59-2.22-8.61Z"/><path class="cls-1" d="M15.82,44.72c.34-3.1,3.23-4.72,3.5-6.4.27,1.68-2.83,4.31-3.5,6.4Z"/><path class="cls-1" d="M17.3,52.12c-.47,2.16,1.28,6.8.74,8.22,1.15-2.49-1-7.14-.74-8.22Z"/><path class="cls-1" d="M13.6,57C14.74,60.88,17,60.61,17.77,63c-.54-2.22-3.57-4.24-4.17-5.92Z"/><path class="cls-1" d="M21.07,58.86c1.55,2.55.27,5.52,1.55,7.33-1.82-1.81-.88-5.25-1.55-7.33Z"/><path class="cls-1" d="M17.44,65.86C19.25,69.29,23,69,24.57,71.45c-1.55-3.1-6.19-3.64-7.13-5.59Z"/><path class="cls-1" d="M24.1,65.45c3.23,2.29,2.22,4.65,4.71,7.14C25.72,70.1,26,67.27,24.1,65.45Z"/><path class="cls-1" d="M25.58,74.61c3.17-.14,7.68,4,10.44,3.63-2.76.61-7.81-3.09-10.44-3.63Z"/><path class="cls-1" d="M30.7,70.91c.2,3.23,8.41,5.25,9.29,7.4-1-2.83-8.21-4.91-9.29-7.4Z"/><path class="cls-1" d="M42.61,16.37c.64-2.82,3.77-3.36,4.18-5-.14,1.78-3.87,3.77-4.18,5Z"/><path class="cls-1" d="M51.87,9.37c-.47,2.12-3.87,3.33-4.34,5,.17-2.19,3.7-3.43,4.34-5Z"/><path class="cls-1" d="M49.21,14.42c1.62-2.62,5-1.92,6.13-3.43-.84,1.75-5,1.82-6.13,3.43Z"/><path class="cls-3" d="M44,79.73c-4.61,2.32-10.4,1.68-15.28-1.45-.23-.14-.32,0-.1.64.53,1.48.94,2.69-.64,5-.7,1,.09,1.12,1.24,1a61.9,61.9,0,0,0,14.44-3L44,79.73Z"/><path class="cls-3" d="M43.89,82.49a47.56,47.56,0,0,1-8.48,2.21c-1.41.24-1.38,1.12,1.18,1.42s5.86-1.55,7.88-3.2l-.58-.43Z"/><path class="cls-3" d="M46.86,77.44a28.86,28.86,0,0,0,3-.44c2.12-.34.57,3-3,3v1.11c3.56,0,7.3-3.9,6.53-5.65-1.12-2.52-4.18-.34-6.53-.34s-5.42-2.18-6.53.34c-.78,1.75,3,5.65,6.53,5.65V80c-3.54,0-5.09-3.3-3-3a29,29,0,0,0,3,.44Z"/><path class="cls-3" d="M49.68,79.73C54.3,82.05,60.09,81.41,65,78.28c.22-.14.31,0,.1.64-.54,1.48-.95,2.69.64,5,.69,1-.1,1.12-1.25,1A61.9,61.9,0,0,1,50,82l-.34-2.22Z"/><path class="cls-3" d="M49.82,82.49A47.79,47.79,0,0,0,58.3,84.7c1.41.24,1.38,1.12-1.18,1.42s-5.85-1.55-7.87-3.2l.57-.43Z"/><path class="cls-3" d="M47,82c.08.88.28,2.8,1.49,2a3.62,3.62,0,0,0,2-3.53c0-1-1.21-2.42-3.6-2.42s-3.61,1.44-3.61,2.42a3.62,3.62,0,0,0,2,3.53c1.2.82,1.33-1.11,1.48-2,.05-.31.32-.2.33,0Z"/></g></g></svg>