<?xml version="1.0" encoding="utf-8"?>
<!-- Generator: Adobe Illustrator 16.0.0, SVG Export Plug-In . SVG Version: 6.00 Build 0)  -->
<!DOCTYPE svg PUBLIC "-//W3C//DTD SVG 1.1//EN" "http://www.w3.org/Graphics/SVG/1.1/DTD/svg11.dtd">
<svg version="1.1" id="Layer_1" xmlns="http://www.w3.org/2000/svg" xmlns:xlink="http://www.w3.org/1999/xlink" x="0px" y="0px"
	 width="512px" height="512px" viewBox="0 0 512 512" enable-background="new 0 0 512 512" xml:space="preserve">
<g>
	<path fill="#287F36" d="M311.004,222c-48.523,0-88,39.477-88,88s39.477,88,88,88s88-39.477,88-88S359.527,222,311.004,222z
		 M311.004,378c-37.496,0-68-30.504-68-68s30.504-68,68-68s68,30.504,68,68S348.5,378,311.004,378z"/>
	<path fill="#287F36" d="M503.066,454.113l-79.363-79.367c11-19.074,17.301-41.188,17.301-64.746
		c0-34.77-13.723-66.391-36.031-89.742v-112.27c-0.008,0-0.016,0-0.023,0c0-2.602-0.992-5.156-2.902-7.07L304.059,2.93
		c-1.914-1.914-4.473-2.902-7.074-2.902c0-0.012,0-0.016,0.004-0.027H31C14.457,0,1,13.457,1,30v452c0,16.543,13.457,30,30,30
		h343.977c16.539,0,30-13.457,30-30v-30.07l50.137,50.141c6.609,6.609,15.293,9.914,23.98,9.914c8.684,0,17.367-3.305,23.977-9.914
		C516.289,488.848,516.289,467.336,503.066,454.113z M311.004,420c-60.652,0-110-49.348-110-110s49.348-110,110-110
		s110,49.348,110,110S371.656,420,311.004,420z M306.988,34.145l63.844,63.848h-53.844c-5.516,0-10-4.488-10-10V34.145z
		 M384.977,482c0,5.516-4.488,10-10,10H31c-5.516,0-10-4.484-10-10V30c0-5.516,4.484-10,10-10h255.988v67.988
		c0,16.543,13.457,30,30,30h67.984v85.172C363.965,188.566,338.469,180,311.004,180c-71.684,0-130,58.316-130,130
		c0,13.996,2.234,27.484,6.348,40.129H65.152c-5.52,0-10,4.477-10,10c0,5.52,4.48,10,10,10h127.695c0.941,0,1.855-0.141,2.719-0.387
		C217.238,411.445,260.848,440,311.004,440c23.555,0,45.668-6.301,64.742-17.301l9.23,9.23V482z M488.926,487.926
		c-5.422,5.426-14.246,5.426-19.668,0l-76.738-76.738c7.234-5.84,13.828-12.434,19.668-19.668l76.738,76.734
		C494.352,473.68,494.352,482.504,488.926,487.926z"/>
	<path fill="#287F36" d="M311.004,265.004c-5.523,0-10,4.477-10,10s4.477,10,10,10C324.785,285.004,336,296.219,336,310
		c0,5.523,4.477,10,10,10s10-4.477,10-10C356,285.188,335.816,265.004,311.004,265.004z"/>
	<path fill="#287F36" d="M155.148,280.793H65.152c-5.52,0-10,4.477-10,10s4.48,10,10,10h89.996c5.523,0,10-4.477,10-10
		S160.672,280.793,155.148,280.793z"/>
	<path fill="#287F36" d="M161.074,211.461H65.152c-5.52,0-10,4.477-10,10c0,5.52,4.48,10,10,10h95.922c5.523,0,10-4.48,10-10
		C171.074,215.938,166.598,211.461,161.074,211.461z"/>
	<path fill="#287F36" d="M191,419.461c-2.633,0-5.211,1.066-7.07,2.93c-1.859,1.859-2.93,4.438-2.93,7.07
		c0,2.629,1.07,5.211,2.93,7.066c1.859,1.863,4.438,2.934,7.07,2.934c2.629,0,5.211-1.07,7.078-2.934
		c1.859-1.855,2.922-4.438,2.922-7.066c0-2.633-1.063-5.211-2.922-7.07C196.211,420.527,193.629,419.461,191,419.461z"/>
	<path fill="#287F36" d="M149.93,419.461H65.152c-5.52,0-10,4.477-10,10c0,5.52,4.48,10,10,10h84.777c5.52,0,10-4.48,10-10
		C159.93,423.938,155.453,419.461,149.93,419.461z"/>
	<path fill="#287F36" d="M65.148,162.129c2.641,0,5.211-1.07,7.07-2.93c1.871-1.871,2.93-4.438,2.93-7.07
		c0-2.629-1.059-5.207-2.93-7.078c-1.859-1.859-4.441-2.922-7.07-2.922s-5.199,1.063-7.07,2.922c-1.859,1.859-2.93,4.438-2.93,7.078
		c0,2.633,1.07,5.211,2.93,7.07C59.941,161.059,62.52,162.129,65.148,162.129z"/>
	<path fill="#287F36" d="M257,142.129H107.539c-5.52,0-10,4.477-10,10c0,5.52,4.48,10,10,10H257c5.523,0,10-4.48,10-10
		C267,146.605,262.523,142.129,257,142.129z"/>
	<path fill="#287F36" d="M65.152,92.793H257c5.523,0,10-4.477,10-10s-4.477-10-10-10H65.152c-5.52,0-10,4.477-10,10
		S59.633,92.793,65.152,92.793z"/>
</g>
</svg>
