<?xml version="1.0" encoding="utf-8"?>
<!-- Generator: Adobe Illustrator 16.0.0, SVG Export Plug-In . SVG Version: 6.00 Build 0)  -->
<!DOCTYPE svg PUBLIC "-//W3C//DTD SVG 1.1//EN" "http://www.w3.org/Graphics/SVG/1.1/DTD/svg11.dtd">
<svg version="1.1" id="Layer_1" xmlns="http://www.w3.org/2000/svg" xmlns:xlink="http://www.w3.org/1999/xlink" x="0px" y="0px"
	 width="512px" height="512px" viewBox="0 0 512 512" enable-background="new 0 0 512 512" xml:space="preserve">
<g>
	<path fill="#287F36" d="M140.387,256c0,4.561-3.698,8.258-8.258,8.258s-8.258-3.697-8.258-8.258s3.697-8.258,8.258-8.258
		S140.387,251.439,140.387,256z"/>
	<path fill="#287F36" d="M222.968,256c0,4.561-3.698,8.258-8.258,8.258c-4.56,0-8.258-3.697-8.258-8.258s3.698-8.258,8.258-8.258
		C219.27,247.742,222.968,251.439,222.968,256z"/>
	<path fill="#287F36" d="M173.419,330.322c-9.109,0-16.516-7.406-16.516-16.516h-16.516c0,18.218,14.814,33.032,33.032,33.032
		s33.032-14.814,33.032-33.032h-16.516C189.936,322.916,182.528,330.322,173.419,330.322z"/>
	<path fill="#287F36" d="M346.839,33.032h16.516v16.516h-16.516V33.032z"/>
	<path fill="#287F36" d="M379.871,33.032h99.097v16.516h-99.097V33.032z"/>
	<path fill="#287F36" d="M379.871,66.064h99.097v16.516h-99.097V66.064z"/>
	<path fill="#287F36" d="M346.839,66.064h16.516v16.516h-16.516V66.064z"/>
	<path fill="#287F36" d="M346.839,99.097h16.516v16.516h-16.516V99.097z"/>
	<path fill="#287F36" d="M379.871,99.097h99.097v16.516h-99.097V99.097z"/>
	<path fill="#287F36" d="M487.226,148.645c13.657,0,24.774-11.117,24.774-24.774V24.774C512,11.117,500.883,0,487.226,0H338.581
		c-13.657,0-24.774,11.117-24.774,24.774v99.097c0,13.657,11.117,24.774,24.774,24.774h41.29v37.484l74.322-33.032v61.613
		c0,13.658,11.117,24.774,24.774,24.774h8.258c4.557,0,8.258,3.709,8.258,8.258v49.549c0,4.556-3.701,8.258-8.258,8.258h-24.774
		v-16.517h-16.516v33.032h41.29c13.657,0,24.774-11.117,24.774-24.773v-49.549c0-13.658-11.117-24.774-24.774-24.774h-8.258
		c-4.557,0-8.258-3.71-8.258-8.258v-66.064H487.226z M338.581,132.129c-4.557,0-8.259-3.709-8.259-8.258V24.774
		c0-4.549,3.702-8.258,8.259-8.258h148.645c4.557,0,8.258,3.709,8.258,8.258v99.097c0,4.548-3.701,8.258-8.258,8.258h-26.524
		l-64.314,28.581v-28.581H338.581z"/>
	<path fill="#287F36" d="M330.322,330.322v16.517c0,4.556-3.701,8.258-8.258,8.258h-16.516c-4.557,0-8.258-3.702-8.258-8.258v-45.75
		c10.108-9.077,16.516-22.198,16.516-36.831v-66.064c0-77.411-62.976-140.387-140.387-140.387S33.032,120.782,33.032,198.193v66.064
		c0,27.326,22.222,49.549,49.548,49.549h1.577c5.186,28.084,23.314,51.645,47.972,64.299v11.842l-88.334,22.089
		C18.012,418.468,0,441.524,0,468.108V512h346.839v-43.892c0-26.584-18.013-49.641-43.794-56.072l-88.335-22.089v-11.842
		c24.657-12.654,42.787-36.206,47.972-64.299h1.576c5.799,0,11.339-1.057,16.517-2.891v35.923c0,13.657,11.116,24.774,24.774,24.774
		h16.516c13.657,0,24.774-11.117,24.774-24.774v-16.517c0-4.557,3.701-8.258,8.258-8.258h24.774v16.516h16.516v-33.031h-41.29
		C341.439,305.549,330.322,316.666,330.322,330.322z M173.419,74.323c68.302,0,123.872,55.568,123.872,123.871v29.234
		c-4.775-4.286-10.355-7.649-16.517-9.827v-19.407c0-59.193-48.162-107.354-107.355-107.354
		c-59.194,0-107.355,48.161-107.355,107.354v19.407c-6.161,2.189-11.742,5.549-16.516,9.827v-29.234
		C49.548,129.891,105.117,74.323,173.419,74.323z M49.548,264.258c0-18.218,14.814-33.032,33.032-33.032h0.307
		c-0.125,1.662-0.307,3.311-0.307,4.996v61.069C64.363,297.291,49.548,282.476,49.548,264.258z M86.379,214.709h-3.798v-16.516
		c0-50.084,40.754-90.838,90.839-90.838c50.084,0,90.838,40.754,90.838,90.838v16.516h-54.479c-32.23,0-63.843-11.088-89.004-31.222
		l-4.714-3.774l-5.024,3.351C99.427,190.802,90.939,201.968,86.379,214.709z M137.851,405.528l23.891,23.891l-26.383,26.375
		l-17.02-45.383L137.851,405.528z M16.516,468.108c0-18.983,12.867-35.451,31.274-40.06l54.411-13.609l26.698,71.178l36.262-36.263
		v46.129H82.581v-33.032H66.064v33.032H16.516V468.108z M330.322,468.108v27.375h-49.548v-33.032h-16.517v33.032h-82.581v-46.129
		l36.262,36.263l26.698-71.178l54.412,13.609C317.456,432.657,330.322,449.125,330.322,468.108z M228.5,410.411l-17.02,45.383
		l-26.383-26.375l23.891-23.891L228.5,410.411z M198.193,392.968l-24.774,24.774l-24.774-24.774v-8.354
		c7.887,2.237,16.178,3.516,24.774,3.516s16.887-1.278,24.774-3.516V392.968z M247.742,297.291
		c0,40.983-33.338,74.322-74.322,74.322s-74.323-33.339-74.323-74.322v-61.069c0-13.932,6.069-26.979,16.476-35.915
		c27.193,19.983,60.399,30.919,94.206,30.919h37.963V297.291z M264.258,231.226c18.218,0,33.033,14.814,33.033,33.032
		s-14.815,33.033-33.033,33.033V231.226z"/>
	<path fill="#287F36" d="M412.903,289.032h16.516v49.548h-16.516V289.032z"/>
</g>
</svg>
