<?xml version="1.0"?>
<svg xmlns="http://www.w3.org/2000/svg" height="512px" viewBox="0 0 496 496" width="512px"><g><path d="m136 248c0 4.417969-3.582031 8-8 8s-8-3.582031-8-8 3.582031-8 8-8 8 3.582031 8 8zm0 0" data-original="#000000" class="active-path" data-old_color="#000000" fill="#006FFF"/><path d="m216 248c0 4.417969-3.582031 8-8 8s-8-3.582031-8-8 3.582031-8 8-8 8 3.582031 8 8zm0 0" data-original="#000000" class="active-path" data-old_color="#000000" fill="#006FFF"/><path d="m168 320c-8.824219 0-16-7.175781-16-16h-16c0 17.648438 14.351562 32 32 32s32-14.351562 32-32h-16c0 8.824219-7.175781 16-16 16zm0 0" data-original="#000000" class="active-path" data-old_color="#000000" fill="#006FFF"/><path d="m336 32h16v16h-16zm0 0" data-original="#000000" class="active-path" data-old_color="#000000" fill="#006FFF"/><path d="m368 32h96v16h-96zm0 0" data-original="#000000" class="active-path" data-old_color="#000000" fill="#006FFF"/><path d="m368 64h96v16h-96zm0 0" data-original="#000000" class="active-path" data-old_color="#000000" fill="#006FFF"/><path d="m336 64h16v16h-16zm0 0" data-original="#000000" class="active-path" data-old_color="#000000" fill="#006FFF"/><path d="m336 96h16v16h-16zm0 0" data-original="#000000" class="active-path" data-old_color="#000000" fill="#006FFF"/><path d="m368 96h96v16h-96zm0 0" data-original="#000000" class="active-path" data-old_color="#000000" fill="#006FFF"/><path d="m472 144c13.230469 0 24-10.769531 24-24v-96c0-13.230469-10.769531-24-24-24h-144c-13.230469 0-24 10.769531-24 24v96c0 13.230469 10.769531 24 24 24h40v36.3125l72-32v59.6875c0 13.230469 10.769531 24 24 24h8c4.414062 0 8 3.59375 8 8v48c0 4.414062-3.585938 8-8 8h-24v-16h-16v32h40c13.230469 0 24-10.769531 24-24v-48c0-13.230469-10.769531-24-24-24h-8c-4.414062 0-8-3.59375-8-8v-64zm-144-16c-4.414062 0-8-3.59375-8-8v-96c0-4.40625 3.585938-8 8-8h144c4.414062 0 8 3.59375 8 8v96c0 4.40625-3.585938 8-8 8h-25.695312l-62.304688 27.6875v-27.6875zm0 0" data-original="#000000" class="active-path" data-old_color="#000000" fill="#006FFF"/><path d="m320 320v16c0 4.414062-3.585938 8-8 8h-16c-4.414062 0-8-3.585938-8-8v-44.320312c9.792969-8.792969 16-21.503907 16-35.679688v-64c0-74.992188-61.007812-136-136-136s-136 61.007812-136 136v64c0 26.472656 21.527344 48 48 48h1.527344c5.023437 27.207031 22.585937 50.03125 46.472656 62.289062v11.472657l-85.574219 21.398437c-24.976562 6.230469-42.425781 28.566406-42.425781 54.320313v42.519531h336v-42.519531c0-25.753907-17.449219-48.089844-42.425781-54.320313l-85.574219-21.398437v-11.472657c23.886719-12.257812 41.449219-35.074218 46.472656-62.289062h1.527344c5.617188 0 10.984375-1.023438 16-2.800781v34.800781c0 13.230469 10.769531 24 24 24h16c13.230469 0 24-10.769531 24-24v-16c0-4.414062 3.585938-8 8-8h24v16h16v-32h-40c-13.230469 0-24 10.769531-24 24zm-152-248c66.167969 0 120 53.832031 120 120v28.320312c-4.625-4.152343-10.03125-7.410156-16-9.519531v-18.800781c0-57.34375-46.65625-104-104-104s-104 46.65625-104 104v18.800781c-5.96875 2.121094-11.375 5.375-16 9.519531v-28.320312c0-66.167969 53.832031-120 120-120zm-120 184c0-17.648438 14.351562-32 32-32h.296875c-.121094 1.609375-.296875 3.207031-.296875 4.839844v59.160156c-17.648438 0-32-14.351562-32-32zm35.679688-48h-3.679688v-16c0-48.519531 39.480469-88 88-88s88 39.480469 88 88v16h-52.777344c-31.222656 0-61.847656-10.742188-86.222656-30.246094l-4.566406-3.65625-4.867188 3.246094c-11.246094 7.496094-19.46875 18.3125-23.886718 30.65625zm49.863281 184.855469 23.144531 23.144531-25.558594 25.550781-16.488281-43.964843zm-117.542969 60.625c0-18.390625 12.464844-34.34375 30.296875-38.808594l52.710937-13.183594 25.863282 68.953125 35.128906-35.128906v44.6875h-80v-32h-16v32h-48zm304 0v26.519531h-48v-32h-16v32h-80v-44.6875l35.128906 35.128906 25.863282-68.953125 52.710937 13.183594c17.832031 4.464844 30.296875 20.417969 30.296875 38.808594zm-98.640625-55.894531-16.488281 43.964843-25.558594-25.550781 23.144531-23.144531zm-29.359375-16.898438-24 24-24-24v-8.09375c7.640625 2.167969 15.671875 3.40625 24 3.40625s16.359375-1.238281 24-3.40625zm48-92.6875c0 39.703125-32.296875 72-72 72s-72-32.296875-72-72v-59.160156c0-13.496094 5.878906-26.136719 15.960938-34.792969 26.34375 19.359375 58.511718 29.953125 91.261718 29.953125h36.777344zm16-64c17.648438 0 32 14.351562 32 32s-14.351562 32-32 32zm0 0" data-original="#000000" class="active-path" data-old_color="#000000" fill="#006FFF"/><path d="m400 280h16v48h-16zm0 0" data-original="#000000" class="active-path" data-old_color="#000000" fill="#006FFF"/></g> </svg>
