<?xml version="1.0" encoding="utf-8"?>
<!-- Generator: Adobe Illustrator 16.0.0, SVG Export Plug-In . SVG Version: 6.00 Build 0)  -->
<!DOCTYPE svg PUBLIC "-//W3C//DTD SVG 1.1//EN" "http://www.w3.org/Graphics/SVG/1.1/DTD/svg11.dtd">
<svg version="1.1" id="Layer_1" xmlns="http://www.w3.org/2000/svg" xmlns:xlink="http://www.w3.org/1999/xlink" x="0px" y="0px"
	 width="512px" height="512px" viewBox="0 0 512 512" enable-background="new 0 0 512 512" xml:space="preserve">
<g>
	<g>
		<g>
			<g>
				<path fill="#287F36" d="M291.055,242.809c1.51,2.953,4.514,4.659,7.62,4.659c1.297,0,2.628-0.299,3.866-0.93
					c0.502-0.256,50.73-25.771,75.502-33.596c4.489-1.425,6.98-6.221,5.555-10.709c-1.417-4.489-6.178-6.989-10.709-5.572
					c-26.095,8.252-75.98,33.596-78.096,34.67C290.594,233.465,288.922,238.603,291.055,242.809z"/>
				<path fill="#287F36" d="M298.675,145.07c1.297,0,2.628-0.299,3.866-0.93c0.502-0.256,50.73-25.771,75.502-33.596
					c4.489-1.425,6.98-6.221,5.555-10.709c-1.417-4.489-6.178-6.989-10.709-5.572c-26.095,8.252-75.98,33.596-78.096,34.671
					c-4.198,2.133-5.871,7.27-3.738,11.477C292.564,143.363,295.568,145.07,298.675,145.07z"/>
				<path fill="#287F36" d="M503.465,128.003c-4.719,0-8.533,3.823-8.533,8.533v332.797c0,14.114-11.485,25.6-25.6,25.6H264.534
					v-19.635c12.441-4.352,44.851-14.497,76.799-14.497c74.334,0,124.809,16.461,125.312,16.631c2.567,0.853,5.436,0.427,7.68-1.179
					c2.227-1.604,3.541-4.181,3.541-6.921V93.87c0-4.002-2.773-7.467-6.682-8.329c0,0-6.69-1.493-18.125-3.593
					c-4.617-0.853-9.079,2.219-9.934,6.844c-0.853,4.642,2.211,9.088,6.845,9.941c4.36,0.802,8.013,1.51,10.829,2.074v357.185
					c-19.337-5.068-62.276-14.259-119.467-14.259c-37.18,0-73.701,12.211-85,16.35c-10.044-4.437-40.405-16.35-77.132-16.35
					c-58.778,0-107.195,9.694-127.999,14.618V100.474c17.041-4.19,67.37-15.138,127.999-15.138c31.113,0,57.795,9.685,68.266,14.063
					V435.2c0,3.072,1.655,5.914,4.326,7.425c2.671,1.519,5.965,1.476,8.603-0.111c0.844-0.503,85.392-51.004,160.434-76.015
					c3.489-1.169,5.837-4.42,5.837-8.098V8.537c0-2.799-1.374-5.419-3.679-7.014c-2.287-1.596-5.222-1.963-7.858-0.981
					C346.854,26.15,277.769,69.141,277.076,69.567c-3.993,2.5-5.213,7.765-2.713,11.759c2.492,3.994,7.756,5.214,11.758,2.714
					c0.632-0.401,60.732-37.794,123.477-63.027v331.278c-58.248,20.241-119.064,53.291-145.066,68.087V93.87
					c0-3.234-1.825-6.187-4.719-7.637c-1.468-0.725-36.436-17.963-80.613-17.963c-77.106,0-136.387,16.683-138.879,17.399
					c-3.661,1.041-6.187,4.395-6.187,8.201v375.464c0,2.671,1.263,5.197,3.388,6.811c1.502,1.135,3.311,1.724,5.146,1.724
					c0.785,0,1.57-0.111,2.338-0.333c0.589-0.162,59.596-16.733,134.194-16.733c31.198,0,57.855,9.711,68.266,14.07v20.063H42.667
					c-14.114,0-25.6-11.486-25.6-25.601V136.537c0-4.71-3.823-8.533-8.533-8.533s-8.533,3.823-8.533,8.533v332.797
					c0,23.526,19.14,42.667,42.667,42.667h426.664c23.526,0,42.667-19.14,42.667-42.667V136.537
					C511.998,131.826,508.184,128.003,503.465,128.003z"/>
				<path fill="#287F36" d="M291.055,191.609c1.51,2.953,4.514,4.659,7.62,4.659c1.297,0,2.628-0.299,3.866-0.93
					c0.502-0.256,50.73-25.771,75.502-33.596c4.489-1.425,6.98-6.221,5.555-10.709c-1.417-4.489-6.178-6.989-10.709-5.572
					c-26.095,8.252-75.98,33.596-78.096,34.671C290.594,182.266,288.922,187.403,291.055,191.609z"/>
				<path fill="#287F36" d="M291.055,294.009c1.51,2.952,4.514,4.659,7.62,4.659c1.297,0,2.628-0.299,3.866-0.93
					c0.502-0.257,50.73-25.771,75.502-33.596c4.489-1.426,6.98-6.222,5.555-10.709c-1.417-4.489-6.178-6.989-10.709-5.572
					c-26.095,8.252-75.98,33.596-78.096,34.67C290.594,284.664,288.922,289.803,291.055,294.009z"/>
				<path fill="#287F36" d="M206.747,158.365C154.054,146,94.175,161.753,91.658,162.427c-4.548,1.22-7.253,5.896-6.033,10.453
					c1.024,3.813,4.471,6.323,8.235,6.323c0.734,0,1.476-0.094,2.219-0.29c0.572-0.162,58.223-15.326,106.777-3.934
					c4.565,1.067,9.182-1.775,10.257-6.366C214.188,164.031,211.337,159.44,206.747,158.365z"/>
				<path fill="#287F36" d="M206.747,209.564c-52.693-12.356-112.571,3.388-115.088,4.062c-4.548,1.22-7.253,5.897-6.033,10.453
					c1.024,3.814,4.471,6.323,8.235,6.323c0.734,0,1.476-0.094,2.219-0.29c0.572-0.162,58.223-15.326,106.777-3.934
					c4.565,1.067,9.182-1.775,10.257-6.366C214.188,215.23,211.337,210.639,206.747,209.564z"/>
				<path fill="#287F36" d="M291.055,345.209c1.51,2.952,4.514,4.658,7.62,4.658c1.297,0,2.628-0.299,3.866-0.93
					c0.502-0.256,50.73-25.771,75.502-33.596c4.489-1.426,6.98-6.221,5.555-10.709c-1.417-4.488-6.178-6.989-10.709-5.572
					c-26.095,8.252-75.98,33.596-78.096,34.671C290.594,335.864,288.922,341.002,291.055,345.209z"/>
				<path fill="#287F36" d="M206.747,260.764c-52.693-12.355-112.571,3.379-115.088,4.063c-4.548,1.22-7.253,5.896-6.033,10.453
					c1.024,3.813,4.471,6.332,8.235,6.332c0.734,0,1.476-0.103,2.219-0.3c0.572-0.161,58.223-15.325,106.777-3.934
					c4.565,1.067,9.182-1.774,10.257-6.366C214.188,266.43,211.337,261.839,206.747,260.764z"/>
				<path fill="#287F36" d="M206.747,363.163c-52.693-12.364-112.571,3.388-115.088,4.062c-4.548,1.221-7.253,5.897-6.033,10.453
					c1.024,3.814,4.471,6.332,8.235,6.332c0.734,0,1.476-0.102,2.219-0.299c0.572-0.162,58.223-15.326,106.777-3.934
					c4.565,1.058,9.182-1.775,10.257-6.366C214.188,368.829,211.337,364.238,206.747,363.163z"/>
				<path fill="#287F36" d="M206.747,311.963c-52.693-12.364-112.571,3.38-115.088,4.063c-4.548,1.221-7.253,5.896-6.033,10.453
					c1.024,3.814,4.471,6.332,8.235,6.332c0.734,0,1.476-0.102,2.219-0.299c0.572-0.162,58.223-15.326,106.777-3.934
					c4.565,1.066,9.182-1.775,10.257-6.367C214.188,317.629,211.337,313.039,206.747,311.963z"/>
			</g>
		</g>
	</g>
</g>
</svg>
